<svg xmlns="http://www.w3.org/2000/svg" viewBox="0 0 107.379 86.815">
  <defs>
    <style>
      .cls-1 {
        fill: #cb5147;
      }

      .cls-1, .cls-10, .cls-11, .cls-12, .cls-13, .cls-14, .cls-15, .cls-16, .cls-17, .cls-18, .cls-19, .cls-2, .cls-20, .cls-3, .cls-4, .cls-5, .cls-6, .cls-7, .cls-8, .cls-9 {
        stroke: #707070;
        stroke-width: 0.2px;
      }

      .cls-2 {
        fill: #6ca2d9;
      }

      .cls-3 {
        fill: #f8f4e3;
      }

      .cls-4 {
        fill: #482f1a;
      }

      .cls-5 {
        fill: #4ba7a8;
      }

      .cls-6 {
        fill: #d16d4e;
      }

      .cls-7 {
        fill: #ddd4c3;
      }

      .cls-8 {
        fill: #9c4238;
      }

      .cls-9 {
        fill: #6f3127;
      }

      .cls-10 {
        fill: #d27163;
      }

      .cls-11 {
        fill: #5b87b2;
      }

      .cls-12 {
        fill: #9ac1e9;
      }

      .cls-13 {
        fill: #c84531;
      }

      .cls-14 {
        fill: #71472c;
      }

      .cls-15 {
        fill: #d88666;
      }

      .cls-16 {
        fill: #843320;
      }

      .cls-17 {
        fill: #42897f;
      }

      .cls-18 {
        fill: #72b7c1;
      }

      .cls-19 {
        fill: #295c5b;
      }

      .cls-20 {
        fill: #392512;
      }
    </style>
  </defs>
  <g id="OBJECTS" transform="translate(0.1 0.1)">
    <g id="Group_390" data-name="Group 390" transform="translate(0)">
      <path id="Path_2239" data-name="Path 2239" class="cls-1" d="M143.922,109.754c1.887-.879,30.716,9.023,31.1,9.2,0,0,2.2-.388,2.508-1.086S145.6,107.194,143.405,107.3s-39.972,15.772-41.626,17.426c-1.241,1.241-.8,5.688,0,8.48,10.6-2.353,28.932-5.843,30.535-5.843,2.508,0,22.184,3.18,38.033,6,3.335-.982,6.1-1.706,6.205-2.043.233-.724-1.422-.44-2.172-.724-.827-.207-30.69-4.887-32.345-7.343C140.354,120.82,142.035,110.633,143.922,109.754Z" transform="translate(-88.117 -107.297)"/>
      <path id="Path_2240" data-name="Path 2240" class="cls-2" d="M76.082,201.913c2.068-1.112,86.976-1.655,88.14.362a3.891,3.891,0,0,1,.388.982c2.534-1.138,4.292-2.094,4.163-2.482a2.251,2.251,0,0,0-1.008-1.112,1.763,1.763,0,0,1-.776.957c-1.034.44-56.416-6.179-57.01-5.869-.595.284-34.516,6.309-35.835,5.585s-1.422-5.3.155-6.179c1.319-.724,34.516-6.9,36.3-7.058,1.758-.155,56.416,8.093,57.295,8.817,0,0,1.163,0,1.034-.879-.052-.362-9.308-2.146-20.451-4.137-15.849-2.818-35.525-6-38.033-6-1.6,0-19.96,3.465-30.535,5.843a52.029,52.029,0,0,0-7.369,1.939c-1.629,1.163-1.034,8.093.155,8.972a18.185,18.185,0,0,0,3.051.543A1.1,1.1,0,0,1,76.082,201.913Z" transform="translate(-66.272 -164.836)"/>
      <path id="Path_2241" data-name="Path 2241" class="cls-3" d="M115.264,193.494c-1.758.155-34.956,6.309-36.3,7.058-1.577.879-1.474,5.43-.155,6.179,1.319.724,35.266-5.3,35.835-5.585.595-.284,55.976,6.309,57.01,5.869a2.018,2.018,0,0,0,.776-.957c.543-1.241.75-3.206.129-3.749C171.679,201.561,117.022,193.339,115.264,193.494Z" transform="translate(-70.912 -171.206)"/>
      <path id="Path_2242" data-name="Path 2242" class="cls-3" d="M259.638,116.632c-1.887.879-3.542,11.066-1.887,13.522,1.681,2.456,31.517,7.162,32.345,7.343.155.026.284-.284.414-.8.621-2.56.982-10.445.207-10.859C290.354,125.63,261.5,115.728,259.638,116.632Z" transform="translate(-203.833 -114.175)"/>
      <path id="Path_2243" data-name="Path 2243" class="cls-4" d="M171.895,258.194a6.428,6.428,0,0,0,1.681-.259c1.525-.957,1.629-6.1.827-8.739a5.182,5.182,0,0,0-.388-.983c-1.163-2.017-86.1-1.474-88.14-.362a1.16,1.16,0,0,0-.336.284c-1.4,1.706-.646,8.661.026,10.73.181.517,4.938.8,12.2.9,17.659-1.215,44.005-2.689,46.28-3C146.479,256.436,162.484,257.367,171.895,258.194Z" transform="translate(-76.066 -210.775)"/>
      <path id="Path_2244" data-name="Path 2244" class="cls-5" d="M153.915,358.169c-.078.9-.207,1.577-.44,1.732-1.034.724-44.807,10.29-48.323,8.532s-3.232-9.7-.595-12.2,48.633-7.5,48.633-7.5,2.947-.44,2.508-.879c-.078-.078-2.12-.414-5.326-.853-8.713.879-27.82,1.6-30.509,1.6-3.516,0-60.242-.155-62.44-.62a1.177,1.177,0,0,1-.724-.621,34.892,34.892,0,0,0-3.982.776c-1.913.879-2.068,10.135.284,12.488s47.6,11.014,51.555,11.014,53.339-10.29,53.029-11.764C157.38,358.919,155.286,358.4,153.915,358.169Z" transform="translate(-51.235 -285.025)"/>
      <path id="Path_2245" data-name="Path 2245" class="cls-3" d="M252.116,373.4c3.516,1.758,47.315-7.782,48.323-8.532.233-.155.362-.827.44-1.732.258-3.18-.284-9.54-.75-9.437,0,0-46,4.99-48.633,7.5C248.884,363.676,248.6,371.614,252.116,373.4Z" transform="translate(-198.224 -289.989)"/>
      <path id="Path_2246" data-name="Path 2246" class="cls-6" d="M69.825,302.033c2.2.465,58.923.621,62.44.621,2.689,0,21.8-.724,30.509-1.6,2.689-.259,4.37-.569,4.292-.853a6.152,6.152,0,0,0-2.249-2.611,3.008,3.008,0,0,1-.543,1.551c-.879.621-30.121,1.06-31.285.31-1.163-.776-1.474-10.083.879-11.609s30.845,1.215,30.845,1.215,2.947-.9,1.629-1.681a43.567,43.567,0,0,0-6.826-.853c-9.411-.827-25.415-1.758-27.846-1.422-2.275.31-28.621,1.784-46.28,3-8.636.595-15.2,1.138-15.875,1.422-1.81.8-1.913,9.463-.44,11.893A1.365,1.365,0,0,0,69.825,302.033Z" transform="translate(-63.687 -239.075)"/>
      <path id="Path_2247" data-name="Path 2247" class="cls-3" d="M317.6,294.483c-2.353,1.525-2.068,10.833-.879,11.609,1.163.776,30.405.31,31.285-.31a3.009,3.009,0,0,0,.543-1.551c.517-2.818.7-8.4-.1-8.532C348.448,295.724,319.956,292.958,317.6,294.483Z" transform="translate(-247.397 -245.746)"/>
      <g id="Group_384" data-name="Group 384" transform="translate(51.306 64.431)">
        <path id="Path_2248" data-name="Path 2248" class="cls-7" d="M255,363.972c1.474-.078,2.973-.233,4.447-.362,1.836-.181,3.671-.362,5.481-.543s3.646-.388,5.455-.7,3.62-.724,5.43-1.086c3.594-.75,7.214-1.319,10.833-1.836,3.646-.517,7.291-.957,10.937-1.448,2.353-.31,4.68-.621,7.007-.982a3.047,3.047,0,0,0-.1-.517c-.052,0-.1.026-.155.026-1.81.284-3.646.543-5.455.776-3.646.491-7.317.931-10.962,1.448-3.62.491-7.214,1.06-10.807,1.758-1.81.362-3.62.776-5.43,1.112-1.81.362-3.62.62-5.455.827-3.671.414-7.343.7-10.988,1.215C255.181,363.739,255.078,363.869,255,363.972Z" transform="translate(-253.604 -356.5)"/>
        <path id="Path_2249" data-name="Path 2249" class="cls-7" d="M254.323,389.468c1.965-.336,3.956-.672,5.921-1.034,3.93-.7,7.886-1.422,11.816-2.12,7.834-1.4,15.668-2.792,23.5-4.111,2.068-.362,4.137-.7,6.231-1.06V380.6c-1.6.259-3.206.543-4.809.8-3.93.672-7.886,1.344-11.816,2.043-7.834,1.37-15.668,2.792-23.5,4.214-2.2.388-4.421.8-6.619,1.215-1.474.284-2.973.543-4.447.853.026.129.052.233.078.336C251.867,389.908,253.108,389.675,254.323,389.468Z" transform="translate(-250.341 -374.369)"/>
        <path id="Path_2250" data-name="Path 2250" class="cls-7" d="M305.571,389.2l-1.939.388c-1.81.362-3.594.7-5.4,1.06l-10.7,2.094c-7.136,1.4-14.246,2.767-21.382,4.163-2.017.388-4.033.776-6.05,1.189-1.448.284-2.87.569-4.292.931l.31.31c2.922-.439,5.843-1.06,8.765-1.629,3.568-.7,7.136-1.4,10.7-2.068l21.486-4.188,6.05-1.164,2.4-.465A6,6,0,0,0,305.571,389.2Z" transform="translate(-254.197 -380.745)"/>
        <path id="Path_2251" data-name="Path 2251" class="cls-7" d="M253.711,378.929c1.862-.259,3.7-.543,5.559-.827,3.723-.595,7.42-1.267,11.118-1.965l11.092-2.094c3.7-.672,7.395-1.345,11.118-1.913,2.766-.44,5.559-.8,8.351-1.112,0-.181-.026-.362-.026-.517-.595.078-1.164.129-1.758.207-1.991.233-3.956.517-5.947.827-3.982.595-7.963,1.293-11.919,2.043-3.956.724-7.912,1.5-11.842,2.224-3.982.75-7.937,1.448-11.919,2.068-2.017.31-4.008.595-6.024.879-.465.078-.957.129-1.422.207a2.856,2.856,0,0,1-.465.052c0,.129-.026.259-.026.388.439-.026.9-.078,1.344-.129C251.875,379.187,252.806,379.058,253.711,378.929Z" transform="translate(-249.6 -366.88)"/>
        <path id="Path_2252" data-name="Path 2252" class="cls-7" d="M254.607,371.422c1.991-.284,3.982-.595,6-.9,3.956-.595,7.886-1.241,11.842-1.887s7.937-1.319,11.893-1.991c3.93-.672,7.886-1.4,11.816-2.12a43.369,43.369,0,0,1,5.455-.8c-.026-.181-.026-.336-.052-.517a36.934,36.934,0,0,0-4.137.543c-3.93.724-7.86,1.422-11.79,2.12s-7.834,1.344-11.764,1.991c-3.956.646-7.886,1.293-11.842,1.887-3.775.595-7.575,1.112-11.324,1.758a2.418,2.418,0,0,1-.1.414C251.919,371.836,253.263,371.629,254.607,371.422Z" transform="translate(-250.341 -361.468)"/>
      </g>
      <path id="Path_2253" data-name="Path 2253" class="cls-7" d="M463.895,350.8a2.593,2.593,0,0,1-.595,1.293.025.025,0,0,0,.026.026,2.293,2.293,0,0,0,.595-1.293A.025.025,0,0,0,463.895,350.8Z" transform="translate(-356.742 -287.842)"/>
      <g id="Group_385" data-name="Group 385" transform="translate(68.396 49.591)">
        <path id="Path_2254" data-name="Path 2254" class="cls-7" d="M348.926,332.795h-.646c-1.241,0-2.482.026-3.723.026-2.456,0-4.887-.026-7.343-.026-4.887,0-9.8-.155-14.686-.336l-4.111-.155c-.672-.026-1.344-.078-2.017-.1.026.1.026.207.052.31.517.052,1.034.078,1.526.129,1.215.078,2.43.129,3.646.181,2.456.1,4.887.181,7.343.259,4.887.129,9.8.259,14.686.259,1.37,0,2.741,0,4.111-.026h1.008A1.973,1.973,0,0,0,348.926,332.795Z" transform="translate(-316.219 -323.642)"/>
        <path id="Path_2255" data-name="Path 2255" class="cls-7" d="M322.351,299.746c1.215.052,2.43-.026,3.646-.052,2.508-.078,4.99-.1,7.5-.1s4.99.052,7.5.155,4.99.233,7.472.44c1.008.078,1.991.155,2.973.259a2.144,2.144,0,0,0-.129-.517c-1.138-.1-2.249-.181-3.387-.284q-3.568-.271-7.136-.388c-2.379-.078-4.731-.129-7.11-.155-2.379,0-4.732.026-7.11.078-1.163.026-2.327.1-3.49.1-1.138,0-2.275-.026-3.439-.1-.078,0-.155-.026-.233-.026-.026.078-.078.129-.1.207A17.592,17.592,0,0,0,322.351,299.746Z" transform="translate(-318.369 -299.1)"/>
        <path id="Path_2256" data-name="Path 2256" class="cls-7" d="M316.45,324.476c1.319.026,2.637.026,3.956.052,2.637.052,5.274.155,7.938.284,5.274.233,10.549.517,15.823.414,1.474-.026,2.948-.078,4.421-.181h.078c.026-.181.026-.336.052-.517-1.241.078-2.456.129-3.7.181-2.637.078-5.274.052-7.912-.026-5.274-.155-10.575-.465-15.849-.569-1.474-.026-2.948-.052-4.447,0-.362,0-.724.026-1.112.026v.362A2.485,2.485,0,0,1,316.45,324.476Z" transform="translate(-315.7 -317.625)"/>
        <path id="Path_2257" data-name="Path 2257" class="cls-7" d="M322.283,317.138c2.508.233,5.042.388,7.576.465s5.068.052,7.576-.026c2.534-.1,5.093-.284,7.627-.491,1.344-.1,2.689-.207,4.033-.336,0-.181.026-.336.026-.517-1.034.078-2.068.181-3.128.259-2.534.207-5.093.414-7.627.543a118.577,118.577,0,0,1-15.151-.284c-1.4-.129-2.792-.259-4.189-.414-1.008-.1-1.991-.233-3-.336a1.256,1.256,0,0,1-.026.31c.827.155,1.681.284,2.508.414C319.749,316.853,321.016,317.008,322.283,317.138Z" transform="translate(-315.922 -311.63)"/>
        <path id="Path_2258" data-name="Path 2258" class="cls-7" d="M323.179,308.1c2.741.181,5.507.31,8.248.362,2.767.052,5.507.078,8.274.078s5.507-.026,8.274-.078c.621,0,1.267-.026,1.887-.026v-.517c-1.008.026-2.017.026-3.051.052l-7.679.078q-7.718,0-15.435-.336c-2.224-.1-4.421-.258-6.645-.414-.026.1-.026.181-.052.284C319.042,307.817,321.111,307.972,323.179,308.1Z" transform="translate(-316.664 -305.18)"/>
      </g>
      <path id="Path_2259" data-name="Path 2259" class="cls-7" d="M115.431,193.2a7.669,7.669,0,0,1-.078,1.086c-.595.155-1.189.336-1.784.517-.672.181-1.37.388-2.043.543-1.37.336-2.741.646-4.111.9-2.741.543-5.507.982-8.274,1.422-2.9.44-5.766.879-8.661,1.319s-5.766.879-8.661,1.319a31.779,31.779,0,0,0-3.128.595,1.58,1.58,0,0,0-.181.362q1.163-.271,2.327-.465c2.87-.491,5.74-.879,8.61-1.319,2.9-.44,5.791-.879,8.713-1.319,2.792-.414,5.559-.853,8.325-1.37a67.3,67.3,0,0,0,8.17-2.017,5.964,5.964,0,0,0,.724-.259c-.052.621-.1,1.267-.129,1.887-1.4.155-2.792.388-4.189.621l-4.5.7c-3,.465-5.972.931-8.972,1.422l-8.92,1.4c-2.9.465-5.817.879-8.713,1.448-.569.1-1.138.233-1.706.362-.026.1-.026.233-.052.336.181-.052.388-.078.569-.129,2.87-.595,5.74-1.034,8.636-1.474,3-.465,6.024-.957,9.023-1.422s5.972-.931,8.972-1.422l4.5-.7c1.5-.233,3.025-.44,4.525-.724.284-.052.543-.1.8-.155v.1c-.026.8-.026,1.629-.026,2.43-.129,0-.259-.026-.388-.026a4.224,4.224,0,0,0-.569.052c-.336.026-.7.078-1.034.129-.7.078-1.422.181-2.12.259l-4.266.543c-2.844.362-5.662.75-8.506,1.112-2.741.362-5.481.724-8.2,1.112-2.741.414-5.455.853-8.144,1.4-1.241.259-2.482.543-3.7.827.026.129.052.259.078.362.388-.1.75-.181,1.138-.284,2.818-.646,5.662-1.163,8.532-1.629,2.844-.465,5.714-.853,8.584-1.215l8.842-1.163c1.474-.181,2.947-.388,4.4-.595,1.474-.207,2.947-.362,4.421-.621a4.012,4.012,0,0,0,.543-.1,2.827,2.827,0,0,0,.44-.129c0,.517.026,1.008.052,1.5h.517c-.026-.517-.052-1.06-.078-1.577v-.026c1.913.259,3.827.44,5.74.621,2.094.207,4.189.414,6.257.621,4.137.414,8.274.853,12.41,1.267,8.248.827,16.5,1.655,24.666,2.973,2.275.362,4.55.776,6.826,1.189.31.052.621.129.957.181.052-.1.129-.233.181-.362a.08.08,0,0,1,.026-.052c-.129-.026-.284-.052-.414-.078-2.017-.388-4.059-.75-6.1-1.086-4.033-.672-8.067-1.215-12.126-1.706-8.248-.957-16.521-1.655-24.795-2.482l-7.033-.7c-2.2-.207-4.421-.465-6.619-.595-.026-.982,0-1.939.052-2.922.853.259,1.732.414,2.611.595,1.008.207,1.991.362,3,.543,1.991.336,4.008.646,6.024.957,3.982.569,7.989,1.112,12,1.629l12.255,1.551,12.255,1.551,6.128.776c1.06.129,2.12.284,3.18.414a3.169,3.169,0,0,0,.052-.491c-.7-.078-1.37-.181-2.068-.259l-6.128-.776c-4.033-.517-8.093-1.008-12.126-1.525s-8.067-1.008-12.1-1.525c-4.008-.491-8.015-.931-12.023-1.474-2.249-.31-4.5-.621-6.748-.982-1.112-.181-2.249-.388-3.361-.569-.982-.155-1.939-.362-2.922-.491.026-.491.052-.982.1-1.474h0a44.843,44.843,0,0,0,5.895,1.163c1.965.284,3.93.517,5.895.776,4.085.491,8.17.983,12.281,1.5,4.111.491,8.222,1.034,12.333,1.525,4.085.491,8.2.931,12.281,1.551,2.922.439,5.792,1.06,8.687,1.629a1.561,1.561,0,0,0-.129-.414c-.362-.078-.724-.129-1.086-.207-1.991-.388-3.982-.8-5.973-1.138-4.008-.672-8.067-1.086-12.1-1.577-8.17-.982-16.366-1.939-24.536-2.947-2.275-.284-4.55-.543-6.8-.853-2.224-.31-4.421-.75-6.619-1.163h-.052c.026-.388.078-.8.078-1.189h-.465C115.457,193.2,115.431,193.2,115.431,193.2Z" transform="translate(-71.209 -170.916)"/>
      <path id="Path_2260" data-name="Path 2260" class="cls-7" d="M220.162,204.629c-.129-.052-.233-.078-.362-.129h0l.362.129C220.188,204.655,220.188,204.629,220.162,204.629Z" transform="translate(-176.198 -179.368)"/>
      <path id="Path_2261" data-name="Path 2261" class="cls-8" d="M283.185,133.331c.233-.724-1.422-.44-2.172-.724-.827-.207-30.69-4.887-32.345-7.343-1.681-2.456,0-12.643,1.887-13.522s30.716,9.023,31.1,9.2a9.017,9.017,0,0,0,1.784-.517,29.585,29.585,0,0,0-3.646-1.422q-13.613-4.654-27.458-8.636a5.139,5.139,0,0,0-2.973-.259c-1.732.517-2.456,2.56-2.87,4.344-.595,2.663-1.086,5.352-1.422,8.067a19.552,19.552,0,0,0-.155,4.912,4.882,4.882,0,0,0,.672,2.068,3.93,3.93,0,0,0,.776.827c7.731,1.163,20.038,3.206,30.612,5.068C280.315,134.391,283.082,133.667,283.185,133.331Z" transform="translate(-194.751 -109.285)"/>
      <path id="Path_2262" data-name="Path 2262" class="cls-9" d="M217.48,124.322a8.044,8.044,0,0,0-.724,1.681c-.207.595-.388,1.215-.543,1.836a25.378,25.378,0,0,0-.646,3.671,30.33,30.33,0,0,0-.181,3.749c0,.646.052,1.267.078,1.913a9.422,9.422,0,0,0,.233,1.887.4.4,0,0,0,.776-.1,15.534,15.534,0,0,0-.181-1.887q-.078-.892-.078-1.784a29.475,29.475,0,0,1,.155-3.7c.129-1.241.336-2.456.569-3.671.1-.595.259-1.163.388-1.732a13.747,13.747,0,0,0,.414-1.784C217.764,124.244,217.558,124.219,217.48,124.322Z" transform="translate(-172.922 -119.874)"/>
      <path id="Path_2263" data-name="Path 2263" class="cls-9" d="M204.874,141.376a4.4,4.4,0,0,1-.052-1.163,3.782,3.782,0,0,0,.078-1.086.222.222,0,0,0-.336-.129,2.177,2.177,0,0,0-.595,2.146,4.292,4.292,0,0,1,.078.569,1.151,1.151,0,0,1-.181.595,3.359,3.359,0,0,0-.284,1.112,2.58,2.58,0,0,0,.155,1.086,1.866,1.866,0,0,0,.233.517.3.3,0,0,1,.052.259c-.026.078-.1.207-.129.284a2.989,2.989,0,0,0-.207,1.163,1.326,1.326,0,0,0,.259.983.188.188,0,0,0,.31-.078,7.006,7.006,0,0,0,.1-1.034,5.434,5.434,0,0,1,.388-1.086c.155-.362,0-.621-.155-.957a2.208,2.208,0,0,1-.207-1.086,2.986,2.986,0,0,1,.31-1.034A1.664,1.664,0,0,0,204.874,141.376Z" transform="translate(-164.168 -130.775)"/>
      <path id="Path_2264" data-name="Path 2264" class="cls-9" d="M150.691,160.428a2.662,2.662,0,0,0-1.422-.465,3.437,3.437,0,0,0-1.6.259,3.768,3.768,0,0,0-1.319.957,3.147,3.147,0,0,0-.672,1.344.155.155,0,0,1-.026.1,2.388,2.388,0,0,0,1.034,2.508,3.2,3.2,0,0,0,1.4.465,3.685,3.685,0,0,0,1.577-.259c.026-.026.078-.026.1-.052a3.768,3.768,0,0,0,1.319-.957,3.147,3.147,0,0,0,.672-1.344,2.5,2.5,0,0,0-.129-1.448A2.287,2.287,0,0,0,150.691,160.428Z" transform="translate(-121.18 -146.336)"/>
      <path id="Path_2265" data-name="Path 2265" class="cls-10" d="M101.689,134.069c-.75.75-.879,2.663-.7,4.68a7.4,7.4,0,0,1,2.508-4.008,13.71,13.71,0,0,1,2.947-1.655c9.385-4.24,19.391-7.5,27.872-13.186C122.4,124.606,102.879,132.879,101.689,134.069Z" transform="translate(-88.054 -116.641)"/>
      <path id="Path_2266" data-name="Path 2266" class="cls-9" d="M196.7,140.565q.039-1.629.233-3.258c.129-1.086.362-2.172.517-3.258.026-.233-.31-.259-.388-.052a7.3,7.3,0,0,0-.284.8c-.078.284-.129.543-.207.827-.129.543-.207,1.112-.31,1.655a28.985,28.985,0,0,0-.284,3.361,29.348,29.348,0,0,0,.646,6.722c.1.491.879.284.776-.207A28.291,28.291,0,0,1,196.7,140.565Z" transform="translate(-158.532 -126.99)"/>
      <path id="Path_2267" data-name="Path 2267" class="cls-9" d="M115.2,177.252c-.078-.31-.155-.621-.207-.931a13.186,13.186,0,0,1-.284-1.991,16.179,16.179,0,0,1-.026-1.939c.026-.31.052-.646.078-.957a6.393,6.393,0,0,0,.129-.982c-.026-.207-.284-.362-.44-.181a3.576,3.576,0,0,0-.44,1.887,15.235,15.235,0,0,0-.052,2.172,18.069,18.069,0,0,0,.207,2.068,7.091,7.091,0,0,0,.233,1.008,2.286,2.286,0,0,0,.388,1.008c.207.259.595.026.595-.259A2.352,2.352,0,0,0,115.2,177.252Z" transform="translate(-97.709 -153.93)"/>
      <g id="Group_386" data-name="Group 386" transform="translate(18.626 20.09)">
        <path id="Path_2268" data-name="Path 2268" class="cls-11" d="M207.1,229.024a2.251,2.251,0,0,0-1.008-1.112,1.763,1.763,0,0,1-.776.957c-.957.414-50.184-5.43-56.364-5.869,0,.129-.026.259-.026.388a2.041,2.041,0,0,1-.336,1.163,2.313,2.313,0,0,1-1.5.672c-7.912,1.448-15.823,2.87-23.735,4.318-.052,0-.1.026-.155.026,22.184-.672,78.341-.724,79.3.9a3.891,3.891,0,0,1,.388.982C205.471,230.369,207.229,229.386,207.1,229.024Z" transform="translate(-123.2 -213.175)"/>
        <path id="Path_2269" data-name="Path 2269" class="cls-11" d="M259.91,191c-15.849-2.818-35.525-6-38.033-6H221.8c.1.724.181,1.474.233,2.2,1.836-.129,56.416,8.093,57.295,8.817,0,0,1.163,0,1.034-.879C280.284,194.747,271.028,192.963,259.91,191Z" transform="translate(-196.307 -185)"/>
      </g>
      <path id="Path_2270" data-name="Path 2270" class="cls-12" d="M77.769,192.75c10.058-2.4,20.348-3.827,30.276-6.748a9.323,9.323,0,0,0,2.043-.8c-3.671.465-20.115,3.594-29.914,5.766A52.026,52.026,0,0,0,72.8,192.9a3.587,3.587,0,0,0-.9,2.379A13.054,13.054,0,0,1,77.769,192.75Z" transform="translate(-66.538 -165.058)"/>
      <path id="Path_2271" data-name="Path 2271" class="cls-13" d="M335.335,297.451a3.007,3.007,0,0,1-.543,1.551c-.879.621-30.121,1.06-31.284.31-1.163-.776-1.474-10.083.879-11.609s30.845,1.215,30.845,1.215,2.947-.9,1.629-1.681a43.587,43.587,0,0,0-6.826-.853c-8.455-.75-22.209-1.577-26.682-1.5a7.849,7.849,0,0,0-1.293,2.379,21.781,21.781,0,0,0-1.267,9.8,6.4,6.4,0,0,1-.052,2.715,5.185,5.185,0,0,1-2.508,2.585,1.05,1.05,0,0,1-.233.129h4.783c2.689,0,21.8-.724,30.509-1.6,2.689-.259,4.37-.569,4.292-.853A6.577,6.577,0,0,0,335.335,297.451Z" transform="translate(-234.18 -238.966)"/>
      <path id="Path_2272" data-name="Path 2272" class="cls-14" d="M85.864,248.253a1.16,1.16,0,0,0-.336.284c-.672.853-.853,2.948-.776,5.119l.388-.853a6.556,6.556,0,0,1,3.232-3.128,10.014,10.014,0,0,1,3.025-.491q8.377-.5,16.676-1.784C95.818,247.607,86.536,247.891,85.864,248.253Z" transform="translate(-76.055 -211.176)"/>
      <path id="Path_2273" data-name="Path 2273" class="cls-14" d="M126.575,265.173l-.078-1.164c-.052-.8-.1-1.629-.155-2.43s-.1-1.577-.155-2.379l-.078-1.163a3.382,3.382,0,0,0-.181-1.138c-.078-.181-.362-.1-.414.052a3.788,3.788,0,0,0-.052,1.086c.026.414.026.8.052,1.215.026.8.052,1.577.1,2.379.026.776.078,1.525.1,2.3.026.414.052.8.052,1.215a2.712,2.712,0,0,0,.129,1.034.315.315,0,0,0,.569.078C126.678,265.949,126.575,265.535,126.575,265.173Z" transform="translate(-106.243 -218.142)"/>
      <path id="Path_2274" data-name="Path 2274" class="cls-14" d="M144.494,263.455c0-.388-.026-.776-.026-1.163-.026-.8-.026-1.577-.052-2.379-.026-.776-.026-1.551-.026-2.3v-1.163a3.351,3.351,0,0,0-.129-1.138.206.206,0,0,0-.388,0,3.072,3.072,0,0,0-.155,1.086c0,.414-.026.8-.026,1.215-.026.8-.026,1.577-.026,2.379v4.189c0,.026-.026.052,0,.1,0,.026,0,.052.026.052a.44.44,0,0,0,.026.181v.181h0a.423.423,0,0,0,.827-.1A8.572,8.572,0,0,0,144.494,263.455Z" transform="translate(-119.741 -216.941)"/>
      <path id="Path_2275" data-name="Path 2275" class="cls-15" d="M75.079,291.459c9.282.362,18.409-2.508,27.691-2.689,2.43-.052,4.887.1,7.317.052a95.638,95.638,0,0,0,13.832-1.6A45.269,45.269,0,0,0,130.1,285.9c-7.11.517-28.828,1.758-44.083,2.818-8.636.595-15.2,1.138-15.875,1.422-.595.259-1.008,1.422-1.241,2.922.052-.052.1-.129.155-.181C70.451,291.278,72.933,291.381,75.079,291.459Z" transform="translate(-64.314 -239.722)"/>
      <path id="Path_2276" data-name="Path 2276" class="cls-16" d="M131.141,304.814c-.026-.569-.078-1.138-.1-1.706-.078-1.189-.181-2.353-.284-3.542-.1-1.163-.233-2.327-.388-3.465a3.578,3.578,0,0,0-.931-2.534,3.888,3.888,0,0,0-2.689-.517c-1.189.026-2.4.052-3.594.1q-3.568.116-7.136.31c-4.757.233-9.515.569-14.272.9s-9.489.7-14.246,1.034c-2.379.155-4.757.362-7.11.543-1.163.078-2.353.181-3.516.259-.569.052-1.163.078-1.732.129a4.223,4.223,0,0,0-1.267.233c-2.172.776-1.319,5.042-1.034,6.7a5.111,5.111,0,0,0,.957,2.353,3.7,3.7,0,0,0,2.224,1.293,15.518,15.518,0,0,0,3.1.181l3.542.052c2.379.052,4.783.078,7.162.129,4.757.1,9.54.181,14.3.233,4.757.078,9.515.129,14.272.207,2.379.026,4.757.026,7.136.052a25.923,25.923,0,0,0,3.465-.181,2.5,2.5,0,0,0,2.068-1.215A4.483,4.483,0,0,0,131.141,304.814Zm-.9,1.474a1.87,1.87,0,0,1-1.06.517,9.844,9.844,0,0,1-1.525.181c-2.249.155-4.525.1-6.774.1-4.55,0-9.1-.026-13.626-.078-4.55-.052-9.1-.129-13.651-.181L80,306.675c-1.06-.026-2.12.026-3.154-.078a3.819,3.819,0,0,1-2.585-1.06c-1.267-1.344-1.293-3.62-1.189-5.352q.078-1.008.233-2.017a.412.412,0,0,0,.1-.31c-.052-.31.31-.491.543-.595a3.423,3.423,0,0,1,1.112-.233c1.112-.1,2.224-.181,3.309-.259,2.275-.155,4.525-.336,6.8-.491,4.525-.336,9.075-.7,13.6-1.034,4.55-.336,9.075-.672,13.626-.957,4.525-.258,9.049-.491,13.574-.569.543,0,1.086-.026,1.629-.026a2.348,2.348,0,0,1,1.267.284c.8.491.776,1.732.879,2.56.284,2.224.491,4.473.621,6.7.026.569.078,1.138.1,1.706A1.843,1.843,0,0,1,130.236,306.288Z" transform="translate(-66.933 -245.01)"/>
      <path id="Path_2277" data-name="Path 2277" class="cls-16" d="M262.933,310.716c-.026-.517-.078-1.008-.129-1.525-.1-1.008-.233-2.043-.362-3.051-.259-1.991-.646-3.982-.853-5.972,0-.1-.129-.1-.181-.026a2.638,2.638,0,0,0-.078,1.422c.052.491.129.982.181,1.5.129,1.034.233,2.068.336,3.1.1,1.008.181,2.017.259,3.051.026.517.078,1.008.1,1.525.026.388-.052,1.06.336,1.293a.156.156,0,0,0,.207-.026C263.114,311.7,262.959,311.078,262.933,310.716Z" transform="translate(-206.947 -250.241)"/>
      <path id="Path_2278" data-name="Path 2278" class="cls-16" d="M239,312.628c-.026-.362-.078-.724-.129-1.06-.078-.724-.129-1.422-.207-2.146q-.116-1.047-.155-2.094a14.007,14.007,0,0,0-.155-2.094c-.026-.078-.129-.078-.129,0a8.953,8.953,0,0,0-.129,2.042c0,.75,0,1.474.026,2.224.026.724.078,1.422.155,2.146.026.336.052.7.1,1.034.052.259.1.621.362.75.052.026.1.026.129-.026A.99.99,0,0,0,239,312.628Z" transform="translate(-189.762 -254.014)"/>
      <path id="Path_2279" data-name="Path 2279" class="cls-17" d="M168.888,358.169c-.078.9-.207,1.577-.44,1.732-1.034.724-44.807,10.29-48.323,8.532s-3.232-9.7-.595-12.2,48.633-7.5,48.633-7.5,2.947-.44,2.508-.879c-.078-.078-2.12-.414-5.326-.853-8.713.879-27.82,1.6-30.509,1.6-3.516,0-60.242-.155-62.44-.62a1.241,1.241,0,0,1-.646-.491.923.923,0,0,0,.052,1.4,2.641,2.641,0,0,0,1.6.517L107.9,352.74a49.14,49.14,0,0,1,5.145.672,10.461,10.461,0,0,1,2.637.7c1.189.621.543,1.4.181,2.3a12.332,12.332,0,0,0-.724,2.534,15.706,15.706,0,0,0-.155,5.274c.259,1.784.827,3.594.465,5.378a9.352,9.352,0,0,1-.44,1.448,43.9,43.9,0,0,0,4.576.569c3.956,0,53.339-10.29,53.029-11.764C172.353,358.919,170.259,358.4,168.888,358.169Z" transform="translate(-66.208 -285.025)"/>
      <path id="Path_2280" data-name="Path 2280" class="cls-18" d="M53.395,361.828a57.708,57.708,0,0,1-.284-7.317,8.2,8.2,0,0,1,2.663-5.611,21.214,21.214,0,0,0-3.154.646c-1.913.879-2.068,10.135.284,12.488a1.493,1.493,0,0,0,.517.31A3.3,3.3,0,0,1,53.395,361.828Z" transform="translate(-51.161 -286.434)"/>
      <g id="Group_387" data-name="Group 387" transform="translate(30.726 72.877)">
        <path id="Path_2281" data-name="Path 2281" class="cls-19" d="M180.7,404.4h0v0Z" transform="translate(-177.934 -400.461)"/>
        <path id="Path_2282" data-name="Path 2282" class="cls-19" d="M172.534,391.812c-.026-.259-.052-.517-.052-.75a5.238,5.238,0,0,0-.155-1.112,1.1,1.1,0,0,0-1.991-.259,2.551,2.551,0,0,0-.259.7,4.209,4.209,0,0,0-.078.8,8.5,8.5,0,0,0,.129,1.4,2.652,2.652,0,0,0,.543,1.4,1.263,1.263,0,0,0,1.525.259,1.2,1.2,0,0,0,.569-1.138C172.715,392.691,172.611,392.252,172.534,391.812Z" transform="translate(-170 -389.167)"/>
        <path id="Path_2283" data-name="Path 2283" class="cls-19" d="M180.626,403.584c0-.1-.026-.181-.026-.284C180.6,403.4,180.626,403.507,180.626,403.584Z" transform="translate(-177.859 -399.646)"/>
      </g>
      <path id="Path_2284" data-name="Path 2284" class="cls-19" d="M186.245,392.58a3.506,3.506,0,0,0-.052-.517l-.078-.543-.026-.078q-.039-.194,0,.078a1.759,1.759,0,0,1-.052-.517c-.026-.362-.026-.7-.026-1.034a3.3,3.3,0,0,0-.026-.517,2.432,2.432,0,0,0-.284-.931.983.983,0,0,0-1.525-.207,1.982,1.982,0,0,0-.491.8,3.1,3.1,0,0,0-.078.517,6.493,6.493,0,0,0-.052,1.422,7.943,7.943,0,0,0,.155,1.37,4.282,4.282,0,0,0,.155.543,2.515,2.515,0,0,0,.569.8,1.013,1.013,0,0,0,1.681-.44s.052-.207.052-.233c-.1.233-.1.181.052-.155A.568.568,0,0,0,186.245,392.58Z" transform="translate(-149.314 -315.454)"/>
      <g id="Group_388" data-name="Group 388" transform="translate(37.594 73.39)">
        <path id="Path_2285" data-name="Path 2285" class="cls-19" d="M199.287,394.859l-.155-.776-.078-1.008c0-.181-.026-.362-.026-.543a1.513,1.513,0,0,0-.052-.336c-.026-.078-.026-.078-.026-.026a1.5,1.5,0,0,0-.181-.543,1.008,1.008,0,0,0-.7-.465.986.986,0,0,0-.75.207.988.988,0,0,1-.155.129,1.147,1.147,0,0,0-.207.284,2.6,2.6,0,0,0-.181.388,3.025,3.025,0,0,0-.129.517,6.015,6.015,0,0,0-.078,1.37,10.8,10.8,0,0,0,.181,1.319,1.98,1.98,0,0,0,.362.827,2.471,2.471,0,0,0,.621.543,1.03,1.03,0,0,0,1.474-.595,2.272,2.272,0,0,0,.078-1.293Z" transform="translate(-196.563 -391.148)"/>
        <path id="Path_2286" data-name="Path 2286" class="cls-19" d="M199.3,391.975c.026-.026.052-.026.052-.052C199.455,391.871,199.455,391.9,199.3,391.975Z" transform="translate(-198.592 -391.703)"/>
      </g>
      <path id="Path_2287" data-name="Path 2287" class="cls-19" d="M68.282,374.908c0-.026-.026-.052-.026-.078V374.8a.672.672,0,0,0-.233-.414.86.86,0,0,0-.362-.31L67.506,374c-.026,0-.052-.026-.078-.026a.09.09,0,0,1-.052-.026h-.026a1.309,1.309,0,0,0-.336-.052,1.014,1.014,0,0,0-.465.1.794.794,0,0,0-.388.259,1.206,1.206,0,0,0-.31.517h0a.88.88,0,0,0-.052.362l.052.336a1.151,1.151,0,0,0,.31.543,3.8,3.8,0,0,0,.336.259,1.273,1.273,0,0,0,.44.155,1.072,1.072,0,0,0,.491-.026.9.9,0,0,0,.414-.207.968.968,0,0,0,.31-.336l.129-.284A1.476,1.476,0,0,0,68.282,374.908Z" transform="translate(-62.015 -304.97)"/>
      <path id="Path_2288" data-name="Path 2288" class="cls-20" d="M247.407,248.2c-.646-1.086-26.088-1.448-49.486-1.344a29.943,29.943,0,0,1,8.455,2.172,3.545,3.545,0,0,1,1.965,1.525,2.823,2.823,0,0,1-1.034,3.1c-1.629,1.37-3.878,1.629-6,1.887-3.8.465-7.6,1.086-11.35,1.862-2.094.44-4.189.931-6.257,1.551,15.513-.982,31.957-1.939,33.715-2.172,2.4-.336,18.435.595,27.846,1.422a6.435,6.435,0,0,0,1.681-.259c1.525-.957,1.629-6.1.827-8.739A3.773,3.773,0,0,0,247.407,248.2Z" transform="translate(-149.432 -210.757)"/>
      <path id="Path_2289" data-name="Path 2289" class="cls-14" d="M395.791,260.716V259.63c0-.724,0-1.448-.026-2.172q-.039-1.047-.078-2.094c-.026-.362-.026-.724-.052-1.086a.809.809,0,0,0-.336-.646c-.259-.207-.621.181-.44.44.129.181.052.621.052.853v4.835c0,.336,0,.672-.026,1.008a2.344,2.344,0,0,0,.052.853.4.4,0,0,0,.7.1A1.643,1.643,0,0,0,395.791,260.716Z" transform="translate(-305.961 -215.754)"/>
      <path id="Path_2290" data-name="Path 2290" class="cls-14" d="M407.849,256.742a16.328,16.328,0,0,0-.181-1.965c-.052-.336-.1-.646-.181-.982-.078-.259-.129-.569-.388-.7a.2.2,0,0,0-.259.026c-.207.207-.155.491-.129.776l.078.853c.052.646.1,1.267.1,1.913q0,.931-.078,1.862c-.026.31-.052.62-.1.9-.026.181-.052.336-.078.517,0,.078-.078.543.052.259h0c0,.026-.026.078-.026.1a.434.434,0,0,0,.724.31,1.59,1.59,0,0,0,.31-.9c.052-.336.078-.646.1-.982A16.915,16.915,0,0,0,407.849,256.742Z" transform="translate(-314.709 -215.373)"/>
      <g id="Group_389" data-name="Group 389" transform="translate(53.245 3.724)">
        <path id="Path_2291" data-name="Path 2291" class="cls-7" d="M262.649,148.081c2.663.672,5.326,1.4,8.041,1.836,1.344.233,2.715.362,4.059.569a27.024,27.024,0,0,1,3.982.957c2.663.827,5.3,1.732,7.937,2.611,1.525.491,3.025,1.008,4.551,1.5.026-.181.026-.336.052-.517l-3.309-1.086c-2.637-.879-5.274-1.758-7.912-2.611a34.185,34.185,0,0,0-3.852-1.086c-1.319-.284-2.637-.44-3.982-.621-2.689-.362-5.326-1.008-7.963-1.629-2.275-.543-4.55-1.112-6.826-1.6,0,.1-.026.207-.026.284l1.163.31C259.908,147.382,261.278,147.744,262.649,148.081Z" transform="translate(-257.323 -140.014)"/>
        <path id="Path_2292" data-name="Path 2292" class="cls-7" d="M290.956,169.927c-1.189-.207-2.353-.414-3.516-.646-2.508-.517-5.016-1.138-7.5-1.81-2.456-.672-4.912-1.344-7.395-1.862-2.534-.517-5.119-.7-7.627-1.215a70.4,70.4,0,0,1-7.265-2.043c-.052-.026-.1-.026-.155-.052.026.1.026.181.052.284l.853.31c.595.233,1.189.439,1.81.646,1.189.414,2.4.776,3.62,1.086a36.543,36.543,0,0,0,3.8.724c1.267.181,2.56.336,3.827.569,2.534.465,5.016,1.138,7.472,1.81,2.482.672,4.964,1.319,7.472,1.862,1.474.31,2.973.595,4.473.853C290.9,170.289,290.93,170.108,290.956,169.927Z" transform="translate(-257.397 -151.803)"/>
        <path id="Path_2293" data-name="Path 2293" class="cls-7" d="M282.394,136.307c-2.637-.724-5.274-1.448-7.937-2.12s-5.326-1.344-8.015-1.939c-2.146-.491-4.318-1.008-6.464-1.448l-.078.31c.517.129,1.008.233,1.525.362,1.345.31,2.663.62,4.008.931,2.663.646,5.326,1.319,7.989,2.043,2.637.7,5.3,1.4,7.938,2.146,2.637.724,5.249,1.5,7.886,2.249,1.344.388,2.689.75,4.059,1.086v-.517c-1.008-.233-2.017-.517-3-.776C287.616,137.807,285.005,137.031,282.394,136.307Z" transform="translate(-259.176 -128.447)"/>
        <path id="Path_2294" data-name="Path 2294" class="cls-7" d="M285.737,127.595c-2.637-.7-5.249-1.37-7.886-2.068-2.611-.672-5.223-1.4-7.86-2.043-2.4-.595-4.783-1.189-7.188-1.784a1.081,1.081,0,0,0-.1.259c.75.233,1.5.44,2.249.646,1.293.336,2.611.7,3.9,1.06,2.611.75,5.223,1.4,7.834,2.094,2.611.672,5.2,1.37,7.808,2.043,2.482.646,4.99,1.293,7.472,2.017,1.086.336,2.2.672,3.284,1.06-.026-.207-.052-.414-.078-.569-.672-.233-1.37-.465-2.043-.672C290.675,128.862,288.219,128.241,285.737,127.595Z" transform="translate(-261.252 -121.7)"/>
        <path id="Path_2295" data-name="Path 2295" class="cls-7" d="M258.51,139.814c1.37.259,2.741.491,4.085.724,2.767.517,5.533,1.163,8.274,1.836,2.767.7,5.507,1.37,8.248,2.12,2.715.75,5.455,1.525,8.144,2.327,1.551.465,3.128.931,4.68,1.4,0-.181.026-.362.026-.543-1.163-.362-2.327-.7-3.465-1.06-2.715-.8-5.43-1.6-8.144-2.353-2.741-.75-5.481-1.5-8.248-2.146-2.741-.646-5.507-1.215-8.3-1.732-1.37-.259-2.766-.491-4.137-.724-.465-.078-.957-.155-1.422-.259-.026.1-.026.181-.052.284A.41.41,0,0,0,258.51,139.814Z" transform="translate(-257.916 -134.824)"/>
        <path id="Path_2296" data-name="Path 2296" class="cls-7" d="M270.648,156.956c2.611.724,5.2,1.448,7.808,2.12s5.249,1.344,7.886,1.939c1.474.336,2.973.646,4.473.931a2.865,2.865,0,0,0,.052-.491c-1.138-.207-2.275-.44-3.387-.672-2.663-.569-5.3-1.189-7.912-1.836-2.611-.672-5.223-1.344-7.834-2.043-2.663-.724-5.326-1.422-7.989-2.146-2.2-.595-4.421-1.189-6.645-1.758v.181c1.836.543,3.7,1.06,5.559,1.577C265.3,155.482,267.959,156.232,270.648,156.956Z" transform="translate(-257.1 -144.907)"/>
      </g>
      <path id="Path_2297" data-name="Path 2297" class="cls-1" d="M423.829,373.091a.6.6,0,0,0-.595-.595c-.569.052-5.3.233-5.145,1.241.207,1.448.569,2.844.853,4.266a.477.477,0,0,0,.8.207,13.911,13.911,0,0,0,1.474-1.965,11.178,11.178,0,0,0,1.888,1.215.551.551,0,0,0,.827-.491C423.933,375.7,423.881,374.409,423.829,373.091Z" transform="translate(-323.217 -303.928)"/>
      <path id="Path_2298" data-name="Path 2298" class="cls-2" d="M362.2,155.769c-.776-.207-1.551-.44-2.327-.646a.454.454,0,0,0-.414.052.353.353,0,0,0-.362.284,10.4,10.4,0,0,0-.155,1.293c-.052.414-.1.827-.129,1.241-.1.827-.207,1.681-.336,2.508a.453.453,0,0,0,.75.44,19.5,19.5,0,0,0,1.5-1.422c.362.595.75,1.189,1.06,1.836a.52.52,0,0,0,.879,0,6.622,6.622,0,0,0,.672-2.094c.155-.75.362-1.5.465-2.249C363.931,156.079,362.871,155.95,362.2,155.769Z" transform="translate(-279.013 -142.738)"/>
    </g>
  </g>
</svg>
