<svg xmlns="http://www.w3.org/2000/svg" viewBox="0 0 96.654 94.224">
  <defs>
    <style>
      .cls-1 {
        fill: #41402b;
      }

      .cls-2 {
        fill: #565340;
      }

      .cls-3 {
        fill: #121212;
      }

      .cls-4 {
        fill: #333330;
      }

      .cls-5 {
        fill: #e8e3d7;
      }

      .cls-6 {
        fill: #c02b35;
      }

      .cls-7 {
        fill: #d16d4e;
      }

      .cls-8 {
        fill: #00abd6;
      }

      .cls-9 {
        fill: #f8f4e3;
      }

      .cls-10 {
        fill: #42897f;
      }

      .cls-11 {
        fill: #fff;
        opacity: 0.3;
      }

      .cls-12 {
        fill: #625f50;
      }

      .cls-13 {
        fill: #494638;
      }

      .cls-14 {
        fill: #ff2225;
      }

      .cls-15 {
        fill: #4a9a00;
      }
    </style>
  </defs>
  <g id="Group_439" data-name="Group 439" transform="translate(-231.107 -450.229)">
    <path id="Path_2311" data-name="Path 2311" class="cls-1" d="M232.8,562.261c.5,1.555,1.807,4.182,3.531,4.792,2.879,1.03,4.792-3.909,5.506-6.053Z" transform="translate(12.754 -22.74)"/>
    <path id="Path_2312" data-name="Path 2312" class="cls-1" d="M542.8,562.261c.5,1.555,1.807,4.182,3.531,4.792,2.879,1.03,4.792-3.909,5.506-6.053Z" transform="translate(-232.094 -22.74)"/>
    <g id="Group_427" data-name="Group 427" transform="translate(231.107 450.229)">
      <path id="Path_2313" data-name="Path 2313" class="cls-1" d="M332.4,155.588a1.209,1.209,0,0,0-1.03-.588,1.1,1.1,0,0,0-.988.61l-11.706,22.047a1.11,1.11,0,0,0,.021,1.114,1.209,1.209,0,0,0,1.03.588h0a1.1,1.1,0,0,0,.988-.609L332.421,156.7A1.164,1.164,0,0,0,332.4,155.588Z" transform="translate(-286.07 -152.297)"/>
      <path id="Path_2314" data-name="Path 2314" class="cls-1" d="M185.189,172.94a1.271,1.271,0,0,0,.946-.715,1.11,1.11,0,0,0-.168-1.156l-19.84-28.5a1.092,1.092,0,0,0-1.03-.42,1.271,1.271,0,0,0-.946.715h0a1.11,1.11,0,0,0,.168,1.156l19.84,28.5A1.13,1.13,0,0,0,185.189,172.94Z" transform="translate(-164.059 -142.138)"/>
      <path id="Path_2315" data-name="Path 2315" class="cls-1" d="M249.156,243.461c-2.837-2.711-6.536-2.732-10.172-2.312-4.035.483-10.635,1.366-12.421,5.717-1.513,3.7.441,7.251,2.186,10.235a.676.676,0,0,0,.609-.189l21.437-4.834C250.417,251.909,252.455,246.634,249.156,243.461Z" transform="translate(-212.998 -220.182)"/>
      <path id="Path_2316" data-name="Path 2316" class="cls-2" d="M246.344,241.665a15.275,15.275,0,0,0-7.377-.525c-4.035.483-10.635,1.366-12.421,5.717a7.735,7.735,0,0,0-.147,5.317C242.561,248.936,244.915,243.2,246.344,241.665Z" transform="translate(-212.981 -220.172)"/>
    </g>
    <path id="Path_2317" data-name="Path 2317" class="cls-3" d="M196.363,325.363c.294,1.871,1.807,3.363,4.371,4.477H275.26c.189-.336,6.915-37.915,7.083-43.673.147-5.7,1.261-13.157-3.972-17.087-5.506-4.119-13.2-2.69-19.441-2.27-5.548.357-11.1.967-16.645,1.471-12.925,1.2-26.124,2.648-38.776,5.569-2.837.652-8.722,1.324-10.487,4.1-2.312,3.594-.883,11.118-.63,15.048C192.853,300.563,195.733,321.454,196.363,325.363Z" transform="translate(45.198 210.081)"/>
    <path id="Path_2318" data-name="Path 2318" class="cls-4" d="M193.332,302.066c3.783.5,7.587.778,11.349.9,10.8.378,21.647-.294,32.45-.967,11.559-.736,23.119-1.7,34.573-3.447,3.132-.483,6.242-1.009,9.374-1.618.778-4.981,1.3-9,1.366-10.572.147-5.7,1.261-13.157-3.972-17.087-5.506-4.119-13.2-2.69-19.441-2.27-5.548.357-11.1.967-16.645,1.471-12.925,1.2-26.124,2.648-38.776,5.569-2.837.651-8.722,1.324-10.487,4.1-2.312,3.594-.883,11.118-.631,15.048C192.6,295.3,192.911,298.493,193.332,302.066Z" transform="translate(45.119 209.923)"/>
    <path id="Path_2319" data-name="Path 2319" class="cls-5" d="M296.322,335.146c-1.2-6.725-4.519-7.4-11.643-7.944-7.188-.546-14.376-.946-21.584-.925-6.662.021-15.384-.862-21.563,2-6.074,2.816-3.089,32.2.252,37.473a8.909,8.909,0,0,0,7.293,4.224c9.037.147,40.247.378,44.472-2.69C299.1,363.266,297.268,340.463,296.322,335.146Z" transform="translate(8.625 162.741)"/>
    <path id="Path_2320" data-name="Path 2320" class="cls-6" d="M256.385,333.1c-3.4.084-6.915.631-9.142,3.195-1.807,2.081-1.849,5.023-1.871,7.65-.021,3.93-.021,8.028.336,11.917.631,6.683,1.913,12.694,3.111,14.565a7.506,7.506,0,0,0,6.074,3.552c.441,0,.946.021,1.492.021Z" transform="translate(2.83 157.263)"/>
    <path id="Path_2321" data-name="Path 2321" class="cls-7" d="M289.8,333.167c-2.186-.042-3.678-.063-4.035-.063-2.627,0-5.78-.189-8.6.462a208.287,208.287,0,0,0,2.606,40.415h.126c2.039.042,5.3.063,9.247.063h.652Z" transform="translate(-22.178 157.28)"/>
    <path id="Path_2322" data-name="Path 2322" class="cls-8" d="M337.7,333.494c-5.023-.147-9.668-.252-12-.294.378,13.64.967,27.3,1.576,40.941h.315c3.762,0,7.125-.042,10.109-.084Z" transform="translate(-60.621 157.184)"/>
    <path id="Path_2323" data-name="Path 2323" class="cls-9" d="M382.241,334.636c-3.237-.126-6.746-.252-9.962-.336-.063,2.48-.021,4.981.021,7.461q.126,10.025.378,20.05.158,6.557.378,13.136c3.531-.063,6.557-.147,9.184-.273Z" transform="translate(-97.385 156.315)"/>
    <path id="Path_2324" data-name="Path 2324" class="cls-10" d="M425.282,375.165V336.388c-.42-.042-.862-.084-1.324-.105-2.333-.189-5.654-.336-9.226-.483-.021,1.051-.042,2.123-.063,3.173-.231,12.295-.042,24.632-.168,36.948C419.25,375.711,422.739,375.459,425.282,375.165Z" transform="translate(-130.758 155.13)"/>
    <path id="Path_2325" data-name="Path 2325" class="cls-7" d="M468.061,344.588c-.988-5.443-2.942-6.179-10.3-6.746-.147-.021-.315-.021-.462-.042.084,13.009.883,25.977,1.807,38.944,4.96-.546,6.389-1.177,6.788-1.471.9-.652,3.026-3.363,3.216-14.418A100.473,100.473,0,0,0,468.061,344.588Z" transform="translate(-164.563 153.551)"/>
    <path id="Path_2326" data-name="Path 2326" class="cls-11" d="M258.694,365.193a4.115,4.115,0,0,0,.988.8c3.573,1.955,10.319,1.45,14.334,1.66a101.261,101.261,0,0,0,30.832-3.426c4.624-1.3,3.4-5.422,2.984-9.289-.441-4.266-1.6-8.554-6.515-9.437-8.007-1.429-16.33-.672-24.4-1.429-5.464-.5-13.514-1.534-17.591,3.153-1.639,1.87-1.681,4.519-1.681,6.872C257.622,357.059,256.424,362.629,258.694,365.193Z" transform="translate(-6.603 148.961)"/>
    <path id="Path_2327" data-name="Path 2327" class="cls-11" d="M279.224,363.448a2.224,2.224,0,0,0,.21.252c2.333,2.69,6.389,2.207,9.5,1.892,2.438-.252,5.128-.462,7.272-1.849,2.606-1.681,3.047-3.951,1.492-6.662A4.636,4.636,0,0,0,295.092,355c-2.837-.988-6.305-.673-9.247-.525-2.4.126-5.548.252-7.1,2.543A5.686,5.686,0,0,0,279.224,363.448Z" transform="translate(-22.909 140.513)"/>
    <g id="Group_429" data-name="Group 429" transform="translate(310.123 501.06)">
      <path id="Path_2328" data-name="Path 2328" class="cls-12" d="M552.378,384H541.239a1.262,1.262,0,0,0,0,2.522h11.139A1.261,1.261,0,0,0,552.378,384Z" transform="translate(-540.025 -384)"/>
      <path id="Path_2329" data-name="Path 2329" class="cls-13" d="M549.435,406.7h-8.2a1.262,1.262,0,0,0,0,2.522h8.2A1.261,1.261,0,0,0,549.435,406.7Z" transform="translate(-540.025 -401.929)"/>
      <path id="Path_2330" data-name="Path 2330" class="cls-12" d="M548.8,429.5h-7.566a1.262,1.262,0,0,0,0,2.522H548.8A1.261,1.261,0,0,0,548.8,429.5Z" transform="translate(-540.025 -419.937)"/>
      <path id="Path_2331" data-name="Path 2331" class="cls-13" d="M547.964,452.2h-6.725a1.262,1.262,0,0,0,0,2.522h6.725A1.261,1.261,0,0,0,547.964,452.2Z" transform="translate(-540.025 -437.867)"/>
      <path id="Path_2332" data-name="Path 2332" class="cls-12" d="M547.754,475h-6.515a1.262,1.262,0,0,0,0,2.522h6.515A1.261,1.261,0,0,0,547.754,475Z" transform="translate(-540.025 -455.875)"/>
    </g>
    <g id="Group_430" data-name="Group 430" transform="translate(310.286 485.508)">
      <ellipse id="Ellipse_306" data-name="Ellipse 306" class="cls-3" cx="5.78" cy="5.78" rx="5.78" ry="5.78" transform="translate(0 1.681)"/>
      <ellipse id="Ellipse_307" data-name="Ellipse 307" class="cls-5" cx="5.78" cy="5.78" rx="5.78" ry="5.78" transform="translate(1.471)"/>
      <ellipse id="Ellipse_308" data-name="Ellipse 308" class="cls-14" cx="4.308" cy="4.308" rx="4.308" ry="4.308" transform="translate(2.942 1.471)"/>
      <path id="Path_2333" data-name="Path 2333" class="cls-11" d="M563.333,320.489a4.306,4.306,0,0,0-8.533.82,4.39,4.39,0,0,0,.441,1.891A24.214,24.214,0,0,1,563.333,320.489Z" transform="translate(-551.858 -315.529)"/>
      <path id="Path_2334" data-name="Path 2334" class="cls-11" d="M562.284,323.173c-1.891.546-1.955,3.783.462,3.468C564.974,326.367,564.785,322.458,562.284,323.173Z" transform="translate(-556.673 -320.335)"/>
    </g>
    <g id="Group_431" data-name="Group 431" transform="translate(309.887 525.524)">
      <ellipse id="Ellipse_309" data-name="Ellipse 309" class="cls-3" cx="3.72" cy="3.72" rx="3.72" ry="3.72" transform="translate(0 1.072)"/>
      <ellipse id="Ellipse_310" data-name="Ellipse 310" class="cls-5" cx="3.72" cy="3.72" rx="3.72" ry="3.72" transform="translate(0.946)"/>
      <path id="Path_2335" data-name="Path 2335" class="cls-15" d="M553.448,507.674a2.774,2.774,0,1,1-2.774-2.774A2.772,2.772,0,0,1,553.448,507.674Z" transform="translate(-546.008 -503.954)"/>
      <path id="Path_2336" data-name="Path 2336" class="cls-11" d="M553.406,507.149a2.779,2.779,0,0,0-5.506.525,2.611,2.611,0,0,0,.294,1.219A15.271,15.271,0,0,1,553.406,507.149Z" transform="translate(-546.008 -503.954)"/>
      <path id="Path_2337" data-name="Path 2337" class="cls-11" d="M552.735,508.886c-1.219.357-1.261,2.438.294,2.249C554.459,510.925,554.332,508.424,552.735,508.886Z" transform="translate(-549.12 -507.058)"/>
    </g>
  </g>
</svg>
